<?xml version="1.0" encoding="UTF-8" standalone="no"?><!DOCTYPE svg PUBLIC "-//W3C//DTD SVG 1.1//EN" "http://www.w3.org/Graphics/SVG/1.1/DTD/svg11.dtd"><svg width="100%" height="100%" viewBox="0 0 1000 430" version="1.1" xmlns="http://www.w3.org/2000/svg" xmlns:xlink="http://www.w3.org/1999/xlink" xml:space="preserve" xmlns:serif="http://www.serif.com/" style="fill-rule:evenodd;clip-rule:evenodd;stroke-linecap:round;stroke-linejoin:round;stroke-miterlimit:1.5;"><path d="M0,430l340.072,-132.295l292.888,-171.816l243.036,-104.158l124.004,-15.134l-124.004,15.134l124.004,77.771l-659.928,198.203l333.448,132.295l326.48,-330.498l-367.04,26.387l-292.888,171.816l333.448,132.295l11.67,-235.948l-345.118,103.653l-38.601,132.295l38.601,-132.295l333.448,132.295l326.48,-124.817l-87.489,-117.115l87.489,-11.08l-87.489,11.08l87.489,-88.566l-314.81,94.55l-107.971,-35.464l55.741,-32.699l52.23,68.163l85.794,-78.086l229.016,-16.464l-124.004,-77.771l-48.611,90.18l-66.246,-40.956l9.845,45.011l-138.024,9.923l-292.888,171.816l95.861,132.295l68.722,-66.997l42.949,66.997l-42.949,-66.997l-68.722,66.997l-95.861,-132.295l-143.39,55.781l104.789,76.514l89.317,-62.303l45.145,62.303l-18.516,-101.609l98.693,-83.558l157.41,185.167l11.67,-235.948l-76.375,159.834l-104.16,9.117l11.455,-118.17l61.109,-86.245l107.971,35.464l85.794,-78.086l59.246,34.525l-48.262,169.726l-96.778,-126.165l125.904,23.735l101.417,-29.719l-82.281,-37.577l-48.262,169.726l140.841,14.477l-10.298,-146.626l10.298,146.626l-249.289,95.306l127.824,-48.869l198.656,48.869l-40.625,-109.286l-65.261,83.238l-92.77,-22.821l-20.711,48.869l20.711,-48.869l-127.824,48.869l-333.448,-132.295l-143.39,55.781l-63.858,76.514l119.372,-35.979l49.275,35.979l38.601,-132.295l-53.76,20.914l-34.116,75.402l74.692,-51.133l-40.576,-24.269l-286.312,111.381Z" style="fill:none;stroke:url(#_Linear1);stroke-width:4.17px;"/><circle cx="506.879" cy="362.542" r="36.113" style="fill:#333;stroke:#7865ff;stroke-width:4.17px;"/><circle cx="685.865" cy="197.115" r="36.113" style="fill:#333;stroke:#8358ff;stroke-width:4.17px;"/><circle cx="783.719" cy="316.052" r="36.113" style="fill:#333;stroke:#9e39ff;stroke-width:4.17px;"/><circle cx="914.053" cy="189.754" r="36.113" style="fill:#333;stroke:#a72fff;stroke-width:4.17px;"/><path d="M705.068,199.782c0,5.655 -3.677,13.471 -8.124,17.74c-1.972,1.896 -4.096,3.093 -6.118,3.093c-1.278,-0 -2.553,-0.205 -3.649,-0.537c-1.503,-0.454 -3.101,-0.454 -4.603,0c-1.097,0.332 -2.371,0.537 -3.649,0.537c-2.119,-0 -4.351,-1.315 -6.402,-3.371c-4.318,-4.324 -7.841,-11.928 -7.841,-17.462c0,-8.165 4.885,-13.098 9.477,-14.289c2.2,-0.57 4.753,-0.203 6.815,0.334c2.132,0.555 4.347,0.648 6.507,0.279c0.435,-0.075 0.867,-0.168 1.296,-0.279c2.061,-0.537 4.613,-0.904 6.814,-0.334c4.593,1.191 9.477,6.124 9.477,14.289Z" style="fill:#f94848;fill-rule:nonzero;"/><path d="M696.944,217.522c-5.457,0.964 -9.66,0.697 -12.827,-0.07c-5.171,-1.252 -9.018,-5.614 -9.659,-10.896c-1.606,-13.229 7.037,-17.08 7.037,-17.08c2.534,1.151 5.382,0.536 5.382,0.536c-1.817,-1.816 0.604,-3.906 0.604,-3.906c-2.159,0.369 -4.375,0.276 -6.507,-0.279c-2.062,-0.537 -4.614,-0.904 -6.814,-0.334c-4.593,1.191 -9.477,6.124 -9.477,14.289c-0,8.164 7.664,20.833 14.242,20.833c1.278,-0 2.552,-0.205 3.649,-0.537c1.502,-0.454 3.1,-0.454 4.603,0c1.096,0.332 2.371,0.537 3.649,0.537c2.022,-0 4.146,-1.197 6.118,-3.093c-0,0 0,0 -0,-0Z" style="fill:#e23d3d;fill-rule:nonzero;"/><path d="M707.048,174.12c-0,0 -1.134,7.905 -7.107,10.206c-5.71,2.2 -10.799,-3.748 -12.887,-3.279c-0.094,0.019 -0.181,0.053 -0.263,0.102c-0.003,0.001 -0.005,0.002 -0.005,0.002l0.002,-0.004c0.07,-0.213 2.359,-7.033 8.239,-7.48c5.973,-0.454 9.223,2.268 12.021,0.453Z" style="fill:#c7f492;fill-rule:nonzero;"/><path d="M707.048,174.12c-0,0 -3.629,4.423 -8.732,4.423c-4.487,-0 -9.998,2.016 -11.262,2.504c-0.152,0.058 -0.242,0.094 -0.263,0.102c-0.004,0.001 -0.005,0.002 -0.005,0.002l0.001,-0.004c0.071,-0.213 2.36,-7.033 8.24,-7.48c5.973,-0.454 9.223,2.268 12.021,0.453Z" style="fill:#a3e261;fill-rule:nonzero;"/><path d="M695.894,196.592c-0.223,-2.242 0.774,-4.179 2.224,-4.323c1.451,-0.144 2.809,1.559 3.032,3.8c0.223,2.242 -0.774,4.179 -2.224,4.323c-1.451,0.144 -2.809,-1.559 -3.032,-3.8Z" style="fill:#fc8181;"/><path d="M689.105,188.893c-0,0.929 -1.459,1.702 -3.395,1.878c-0.269,0.025 -0.548,0.038 -0.834,0.038c-0.298,-0 -0.589,-0.014 -0.869,-0.04c-1.918,-0.183 -3.359,-0.953 -3.359,-1.876l8.457,0Z" style="fill:#e23d3d;fill-rule:nonzero;"/><path d="M688.102,181.051l-3.102,4.711c0.233,0.955 0.434,2.007 0.564,3.131c0.072,0.607 0.123,1.234 0.146,1.878c-0.269,0.025 -0.548,0.037 -0.834,0.037c-0.298,0 -0.589,-0.013 -0.869,-0.039c-0.025,-0.644 -0.08,-1.27 -0.156,-1.876c-0.556,-4.403 -2.255,-7.647 -2.275,-7.683c-0.22,-0.415 -0.063,-0.93 0.352,-1.15c0.415,-0.221 0.93,-0.063 1.15,0.352c0.05,0.095 0.675,1.289 1.306,3.194l2.298,-3.49c0.258,-0.392 0.786,-0.5 1.177,-0.242c0.393,0.258 0.502,0.785 0.243,1.177Z" style="fill:#b25719;fill-rule:nonzero;"/><path d="M515.835,356.967l-5.072,-5.072c-2.636,-2.636 -6.215,-4.119 -9.944,-4.119l-2.378,0c-6.943,0 -12.656,5.713 -12.656,12.656l-0,4.219c-0,6.943 5.713,12.656 12.656,12.656l22.5,0c3.857,0 7.031,-3.174 7.031,-7.031l0,-4.219c0,-3.857 -3.174,-7.031 -7.031,-7.031l-0.134,0c-1.864,0 -3.654,-0.741 -4.972,-2.059Z" style="fill:#734119;fill-rule:nonzero;"/><path d="M515.835,356.967l-5.072,-5.072c-2.636,-2.636 -6.215,-4.119 -9.944,-4.119l-2.378,0c-6.943,0 -12.656,5.713 -12.656,12.656c-0,6.943 5.713,12.657 12.656,12.657l22.5,-0c3.857,-0 7.031,-3.174 7.031,-7.032c0,-3.857 -3.174,-7.031 -7.031,-7.031l-0.134,0c-1.864,0 -3.654,-0.741 -4.972,-2.059Z" style="fill:#fab991;fill-rule:nonzero;"/><path d="M498.441,370.276c-5.4,0 -9.844,-4.444 -9.844,-9.844c0,-5.4 4.444,-9.843 9.844,-9.843l2.378,-0c2.984,-0.009 5.851,1.179 7.955,3.295l5.072,5.071c1.841,1.852 4.349,2.89 6.961,2.883l0.134,0c2.314,0 4.219,1.905 4.219,4.219c-0,2.314 -1.905,4.219 -4.219,4.219l-22.5,0Z" style="fill:#e13741;fill-rule:nonzero;"/><circle cx="498.441" cy="360.432" r="4.219" style="fill:#fab991;"/><circle cx="498.441" cy="360.432" r="2.109" style="fill:#e13741;"/><path id="XMLID_18_" d="M798.177,316.913l-0.026,0.026c-0.976,1.213 -1.819,2.373 -2.567,3.472l0.009,0.009c0.958,0.58 2.198,0.615 3.208,-0.035c0.774,-0.493 1.248,-1.275 1.371,-2.11l0.009,-0.026c-0.791,-0.202 -1.494,-0.694 -2.004,-1.336Z" style="fill:#3b601c;fill-rule:nonzero;"/><path id="XMLID_53_" d="M789.854,315.032l-2.057,4.421c-1.599,0.782 -3.673,-0.132 -4.377,-1.169l-0.316,-1.784c0.466,0.07 0.94,0.105 1.424,0.105c1.925,0.009 3.744,-0.562 5.326,-1.573Z" style="fill:#4e7a25;fill-rule:nonzero;"/><path id="XMLID_54_" d="M777.075,313.107c0.685,0.747 1.432,1.398 2.232,1.925c-0.395,2.637 -3.753,3.973 -5.809,2.233c-0.466,-0.906 -0.783,-1.53 -0.8,-1.565c1.098,-0.026 2.197,-0.404 3.129,-1.151c0.518,-0.422 0.94,-0.906 1.248,-1.442Z" style="fill:#3b601c;fill-rule:nonzero;"/><path id="XMLID_55_" d="M768.4,315.674l2.883,5.546l-0.035,0.017c-1.899,0.879 -4.149,0.044 -5.028,-1.854c-0.545,-1.187 -0.422,-2.514 0.202,-3.551l0.062,-0.246c0.114,0.026 0.237,0.053 0.36,0.079c0.528,0.088 1.055,0.088 1.556,0.009Z" style="fill:#3b601c;fill-rule:nonzero;"/><g id="XMLID_1_"><path id="XMLID_11_" d="M767.099,318.504c-0.422,-0.923 -0.448,-1.934 -0.141,-2.821c-0.043,-0.009 -0.079,-0.009 -0.123,-0.018c-0.123,-0.018 -0.237,-0.044 -0.36,-0.079l-0.061,0.246c-0.633,1.037 -0.748,2.364 -0.203,3.551c0.871,1.898 3.121,2.733 5.028,1.854l0.044,-0.017l-0.282,-0.537c-1.59,0.194 -3.19,-0.641 -3.902,-2.179Z" style="fill:#4d841e;fill-rule:nonzero;"/></g><g id="XMLID_12_"><path id="XMLID_13_" d="M777.998,314.013c-0.572,2.083 -3.05,3.199 -4.966,2.32c0.132,0.255 0.29,0.562 0.474,0.923c2.048,1.74 5.406,0.413 5.81,-2.233c-0.457,-0.29 -0.897,-0.632 -1.318,-1.01Z" style="fill:#315112;fill-rule:nonzero;"/></g><path id="XMLID_15_" d="M783.104,316.535l0.308,1.749c0.694,1.037 2.777,1.951 4.377,1.169l0.782,-1.687c-1.987,0.667 -4.421,-0.176 -5.467,-1.231Z" style="fill:#2c4415;fill-rule:nonzero;"/><g id="XMLID_16_"><path id="XMLID_17_" d="M798.801,319.154c-0.8,0.51 -1.74,0.598 -2.575,0.325c-0.22,0.317 -0.439,0.624 -0.642,0.932l0.009,0.009c0.958,0.58 2.198,0.615 3.208,-0.035c0.774,-0.493 1.248,-1.275 1.371,-2.11l0.009,-0.026c-0.132,-0.035 -0.264,-0.079 -0.387,-0.123c-0.237,0.404 -0.571,0.765 -0.993,1.028Z" style="fill:#4d841e;fill-rule:nonzero;"/></g><path d="M790.381,313.802l-5.633,12.023l-1.644,-9.325c-1.354,-0.211 -2.646,-0.712 -3.788,-1.477l0.712,8.57c0.009,1.96 -1.846,2.505 -2.769,0.852l-5.229,-10.081l-3.674,1.231l9.94,19.16c0.563,1.432 1.943,2.382 3.498,2.382l4.052,-0c1.644,-0 3.05,-1.09 3.586,-2.646c1.45,-4.183 2.637,-8.437 6.328,-13.913l3.191,-4.623l-8.57,-2.153Z" style="fill:#cadd78;fill-rule:nonzero;"/><g><path d="M787.296,336.477l-4.051,0c-1.547,0 -2.936,-0.949 -3.498,-2.381l-9.818,-18.95l-1.529,0.519l9.896,19.09c0.563,1.432 1.943,2.382 3.498,2.382l4.052,-0c0.8,-0 1.582,-0.264 2.224,-0.747c-0.255,0.061 -0.51,0.087 -0.774,0.087Z" style="fill:#adbc55;fill-rule:nonzero;"/><path d="M780.898,315.876c-0.554,-0.237 -1.081,-0.519 -1.582,-0.844l0.712,8.569c0.009,0.387 -0.079,0.774 -0.255,1.117c0.844,0.237 1.714,-0.44 1.714,-1.785l-0.589,-7.057Z" style="fill:#adbc55;fill-rule:nonzero;"/><path d="M790.557,313.283l-5.801,12.56l0.255,1.432c0.106,0.826 0.448,0.985 0.835,0.862c0.325,-0.097 0.571,-0.361 0.695,-0.677l6.205,-14.168l-2.189,-0.009Z" style="fill:#adbc55;fill-rule:nonzero;"/></g><path id="XMLID_27_" d="M769.006,307.263c-1.696,1.828 -1.881,4.631 -0.307,6.591c0.404,0.501 0.879,0.897 1.406,1.196c-0.949,0.562 -2.092,0.808 -3.261,0.606c-2.61,-0.439 -4.368,-2.918 -3.928,-5.528c0.439,-2.611 2.917,-4.368 5.528,-3.929l0.123,-0.035c0.105,0.387 0.246,0.747 0.439,1.099Z" style="fill:#3b601c;fill-rule:nonzero;"/><path id="XMLID_26_" d="M797.694,315.841c-1.143,0.466 -2.4,0.527 -3.569,0.202c-0.958,-0.264 -1.854,-0.8 -2.575,-1.582c-0.132,-0.141 -0.246,-0.281 -0.36,-0.431l-0.018,0.009c-1.854,1.617 -4.157,2.575 -6.644,2.575c-2.936,0 -5.458,-1.327 -7.445,-3.507c-0.316,0.536 -0.729,1.02 -1.239,1.433c-1.696,1.362 -3.981,1.503 -5.73,0.51c-0.528,-0.299 -1.002,-0.695 -1.406,-1.196c-1.565,-1.951 -1.389,-4.755 0.307,-6.591c-0.193,-0.352 -0.334,-0.712 -0.439,-1.09c-1.037,-3.885 2.795,-8.728 7.919,-5.942c2.891,-7.743 13.588,-6.073 15.978,-0.668c3.683,-1.81 7.629,1.916 6.249,4.826l0.132,-0c3.059,-0 5.537,2.478 5.537,5.528c0,1.002 -0.272,1.951 -0.738,2.76c0.58,0.615 0.94,1.459 0.94,2.373c0,1.916 -1.555,3.471 -3.471,3.471c-1.582,0 -3.006,-1.248 -3.428,-2.68Z" style="fill:#4d841e;fill-rule:nonzero;"/><g id="XMLID_2_"><path id="XMLID_10_" d="M801.113,315.006c-1.573,-0 -2.997,-1.248 -3.428,-2.69c-1.143,0.466 -2.399,0.528 -3.568,0.202c-0.958,-0.263 -1.855,-0.791 -2.576,-1.582c-0.131,-0.14 -0.246,-0.281 -0.36,-0.43l-0.017,0.009c-1.855,1.617 -4.158,2.575 -6.645,2.575c-2.936,-0 -5.458,-1.327 -7.444,-3.507c-0.317,0.536 -0.73,1.019 -1.24,1.433c-1.696,1.362 -3.981,1.502 -5.73,0.509c-0.527,-0.299 -1.011,-0.694 -1.406,-1.195c-0.334,-0.413 -0.58,-0.861 -0.765,-1.336c-0.589,1.608 -0.369,3.445 0.765,4.852c0.404,0.501 0.879,0.896 1.406,1.195c1.749,0.984 4.034,0.852 5.73,-0.51c0.51,-0.413 0.932,-0.896 1.24,-1.432c1.986,2.17 4.508,3.506 7.444,3.506c2.487,0 4.79,-0.958 6.645,-2.575l0.017,-0.009c0.114,0.15 0.229,0.29 0.36,0.431c0.721,0.782 1.618,1.31 2.576,1.582c1.169,0.325 2.425,0.264 3.568,-0.202c0.422,1.441 1.846,2.689 3.428,2.689c1.916,0 3.471,-1.555 3.471,-3.471c0,-0.642 -0.175,-1.24 -0.474,-1.758c-0.607,1.028 -1.714,1.714 -2.997,1.714Z" style="fill:#67a829;fill-rule:nonzero;"/></g><g id="XMLID_6_"><path id="XMLID_7_" d="M768.76,313.925c-0.052,-0.009 -0.105,-0.018 -0.158,-0.027c-2.61,-0.439 -4.368,-2.918 -3.929,-5.528c0.097,-0.58 0.299,-1.116 0.572,-1.591c-1.196,0.686 -2.083,1.89 -2.329,3.349c-0.44,2.61 1.318,5.089 3.928,5.528c1.169,0.193 2.312,-0.044 3.261,-0.606c-0.501,-0.282 -0.958,-0.659 -1.345,-1.125Z" style="fill:#4d841e;fill-rule:nonzero;"/></g><clipPath id="_clip2"><rect id="coffee" x="891.553" y="167.254" width="45" height="45"/></clipPath><g clip-path="url(#_clip2)"><g id="Page-1"><g id="_054---Coffee" serif:id="054---Coffee"><path id="Shape" d="M921.036,203.572c-0.428,-0 -0.776,-0.347 -0.776,-0.776c0.001,-0.089 0.016,-0.177 0.045,-0.261l0.006,-0.016c0.747,-2.159 2.742,-5.782 7.685,-5.782c5.309,-0 6.408,-5.121 6.574,-6.145c0.069,-0.399 -0.042,-0.809 -0.304,-1.118c-0.264,-0.315 -0.654,-0.497 -1.064,-0.496l-5.889,-0c-0.429,-0 -0.776,-0.347 -0.776,-0.776c0,-0.428 0.347,-0.776 0.776,-0.776l5.889,0c0.864,-0.001 1.684,0.379 2.243,1.038c0.559,0.66 0.798,1.532 0.655,2.384c-0.122,0.755 -1.396,7.44 -8.104,7.44c-3.783,0 -5.469,2.575 -6.218,4.733c-0.099,0.327 -0.4,0.551 -0.742,0.551Z" style="fill:#95a5a5;fill-rule:nonzero;"/><path id="Shape1" serif:id="Shape" d="M905.775,198.878l-4.213,-6.098c-1.422,-2.148 -2.203,-4.656 -2.25,-7.231l0,-0.45l13.966,-1.552l15.517,1.552l-0,0.45c-0.024,2.723 -0.927,5.366 -2.576,7.533c-1.49,1.979 -3.243,5.315 -4.166,10.637l-6.448,2.328l-9.83,-7.169Z" style="fill:#e64c3c;fill-rule:nonzero;"/><path id="Shape2" serif:id="Shape" d="M931.122,205.232l0,0.086c0.001,0.461 -0.207,0.897 -0.566,1.187l-2.894,2.312c-0.268,0.215 -0.602,0.333 -0.946,0.333l-13.896,0c0.217,-0.186 0.427,-0.38 0.636,-0.589c1.363,-1.317 2.319,-2.997 2.754,-4.842l13.399,0c0.402,-0 0.787,0.159 1.071,0.443c0.284,0.283 0.443,0.669 0.442,1.07Z" style="fill:#c03a2b;fill-rule:nonzero;"/><path id="Shape3" serif:id="Shape" d="M916.21,203.719c-0.435,1.845 -1.391,3.525 -2.754,4.842c-0.209,0.209 -0.419,0.403 -0.636,0.589c-3.158,2.7 -7.317,3.119 -9.582,0.869c-0.051,-0.047 -0.098,-0.099 -0.14,-0.155c-0.015,-0.013 -0.028,-0.029 -0.039,-0.046c-0.175,-0.191 -0.333,-0.396 -0.473,-0.613c1.917,-1.816 3.36,-0.435 5.276,-2.343c1.947,-1.94 0.489,-3.399 2.436,-5.338c1.909,-1.909 3.36,-0.528 5.268,-2.343l0.008,-0c0.141,0.226 0.266,0.462 0.373,0.706c0.48,1.22 0.572,2.558 0.263,3.832Z" style="fill:#805333;fill-rule:nonzero;"/><path id="Shape4" serif:id="Shape" d="M915.574,199.181l-0.008,-0c-1.908,1.815 -3.359,0.434 -5.268,2.343c-1.947,1.939 -0.489,3.398 -2.436,5.338c-1.916,1.908 -3.359,0.527 -5.276,2.343c-0.141,-0.229 -0.265,-0.468 -0.372,-0.714c-1.071,-2.522 -0.155,-6.044 2.49,-8.666c0.335,-0.338 0.692,-0.652 1.071,-0.939l-0,-0.008c3.096,-2.374 6.975,-2.661 9.147,-0.512c0.066,0.061 0.126,0.129 0.179,0.202c0.173,0.191 0.332,0.396 0.473,0.613Z" style="fill:#a56a43;fill-rule:nonzero;"/><path id="Shape5" serif:id="Shape" d="M905.775,198.878l-0,0.008c-0.379,0.287 -0.736,0.601 -1.071,0.939c-2.901,2.878 -3.724,6.843 -2.118,9.38c0.15,0.235 0.322,0.455 0.512,0.659c-0.683,0.543 -1.451,0.971 -2.273,1.265c-0.252,0.084 -0.508,0.154 -0.768,0.209c-0.078,-3.103 -2.436,-3.15 -2.436,-6.323c-0,-3.235 2.436,-3.235 2.436,-6.471c-0,-3.173 -2.359,-3.219 -2.436,-6.323c0.253,-0.054 0.51,-0.093 0.768,-0.116c0.149,-0.016 0.299,-0.024 0.45,-0.024c0.951,0.004 1.887,0.244 2.723,0.699c2.205,1.343 3.737,3.56 4.213,6.098Z" style="fill:#cb8252;fill-rule:nonzero;"/><path id="Shape6" serif:id="Shape" d="M897.621,205.015c-0,3.173 2.358,3.22 2.436,6.323c-0.254,0.054 -0.51,0.093 -0.768,0.117c-4.236,0.333 -7.743,-4.128 -7.736,-9.675c-0.007,-4.43 2.243,-8.178 5.3,-9.326c0.248,-0.101 0.505,-0.179 0.768,-0.233c0.077,3.104 2.436,3.15 2.436,6.323c-0,3.236 -2.436,3.236 -2.436,6.471Z" style="fill:#cf976a;fill-rule:nonzero;"/><g><path id="Shape7" serif:id="Shape" d="M908.622,178.116c-0.428,-0 -0.775,-0.347 -0.775,-0.776c0.014,-0.788 0.393,-1.525 1.027,-1.995c0.373,-0.342 0.524,-0.495 0.524,-0.853c0,-0.359 -0.155,-0.509 -0.524,-0.854c-0.633,-0.468 -1.012,-1.203 -1.027,-1.99c0.014,-0.788 0.394,-1.525 1.028,-1.994c0.372,-0.342 0.523,-0.494 0.523,-0.848c0,-0.429 0.348,-0.776 0.776,-0.776c0.429,-0 0.776,0.347 0.776,0.776c-0.015,0.787 -0.394,1.523 -1.027,1.992c-0.373,0.342 -0.525,0.494 -0.525,0.853c0,0.36 0.155,0.509 0.525,0.854c0.631,0.468 1.011,1.202 1.027,1.988c-0.015,0.788 -0.395,1.524 -1.027,1.994c-0.37,0.344 -0.525,0.497 -0.525,0.853c0,0.429 -0.347,0.776 -0.776,0.776Z" style="fill:#805333;fill-rule:nonzero;"/><path id="Shape8" serif:id="Shape" d="M913.278,178.116c-0.429,-0 -0.776,-0.347 -0.776,-0.776c0.014,-0.788 0.394,-1.525 1.027,-1.995c0.373,-0.342 0.524,-0.495 0.524,-0.853c0,-0.359 -0.155,-0.509 -0.524,-0.854c-0.632,-0.468 -1.012,-1.203 -1.027,-1.99c0.014,-0.788 0.394,-1.525 1.028,-1.994c0.372,-0.342 0.523,-0.494 0.523,-0.848c0,-0.429 0.348,-0.776 0.776,-0.776c0.429,-0 0.776,0.347 0.776,0.776c-0.014,0.787 -0.394,1.523 -1.027,1.992c-0.373,0.342 -0.525,0.494 -0.525,0.853c0,0.36 0.156,0.509 0.525,0.854c0.632,0.468 1.011,1.202 1.027,1.988c-0.015,0.788 -0.394,1.524 -1.027,1.994c-0.369,0.344 -0.525,0.497 -0.525,0.853c0,0.429 -0.347,0.776 -0.775,0.776Z" style="fill:#805333;fill-rule:nonzero;"/><path id="Shape9" serif:id="Shape" d="M917.933,178.116c-0.429,-0 -0.776,-0.347 -0.776,-0.776c0.014,-0.788 0.394,-1.525 1.027,-1.995c0.373,-0.342 0.525,-0.495 0.525,-0.853c-0,-0.359 -0.156,-0.509 -0.525,-0.854c-0.632,-0.468 -1.012,-1.203 -1.027,-1.99c0.014,-0.788 0.394,-1.525 1.028,-1.994c0.372,-0.342 0.524,-0.494 0.524,-0.848c-0,-0.429 0.347,-0.776 0.775,-0.776c0.429,-0 0.776,0.347 0.776,0.776c-0.014,0.787 -0.394,1.523 -1.027,1.992c-0.373,0.342 -0.524,0.494 -0.524,0.853c-0,0.36 0.155,0.509 0.524,0.854c0.632,0.468 1.011,1.202 1.027,1.988c-0.015,0.788 -0.394,1.524 -1.027,1.994c-0.369,0.344 -0.524,0.497 -0.524,0.853c-0,0.429 -0.348,0.776 -0.776,0.776Z" style="fill:#805333;fill-rule:nonzero;"/><path id="Shape10" serif:id="Shape" d="M899.452,207.769c0.824,0.933 1.308,2.117 1.373,3.36c-0.252,0.084 -0.508,0.154 -0.768,0.209c-0.254,0.054 -0.51,0.093 -0.768,0.117c-0.007,-0.031 -0.009,-0.062 -0.008,-0.093c-0.021,-0.987 -0.399,-1.932 -1.063,-2.662c-1.831,-2.121 -1.831,-5.264 0,-7.386c0.694,-0.754 1.074,-1.745 1.063,-2.77c0.015,-1.019 -0.363,-2.006 -1.055,-2.754c-0.818,-0.927 -1.302,-2.102 -1.373,-3.336c0.248,-0.101 0.505,-0.179 0.768,-0.233c0.253,-0.054 0.51,-0.093 0.768,-0.116c0.006,0.03 0.009,0.062 0.008,0.093c0.021,0.986 0.399,1.931 1.062,2.661c1.832,2.122 1.832,5.265 0,7.386c-0.694,0.754 -1.074,1.745 -1.062,2.77c-0.016,1.02 0.362,2.006 1.055,2.754Z" style="fill:#805333;fill-rule:nonzero;"/></g><path id="Shape11" serif:id="Shape" d="M915.947,199.887c-0.8,0.703 -1.809,1.123 -2.871,1.194c-1.738,0.097 -3.127,1.482 -3.228,3.22c-0.189,2.43 -2.124,4.358 -4.554,4.539c-0.813,0.036 -1.586,0.367 -2.172,0.931c-0.024,0.016 -0.039,0.031 -0.063,0.047c-0.175,-0.191 -0.333,-0.396 -0.473,-0.613c-0.141,-0.229 -0.265,-0.468 -0.372,-0.714c0.8,-0.696 1.805,-1.112 2.863,-1.187c0.844,-0.035 1.643,-0.39 2.234,-0.993c0.608,-0.586 0.967,-1.384 1.001,-2.227c0.19,-2.427 2.119,-4.353 4.547,-4.539c0.812,-0.034 1.584,-0.362 2.172,-0.923c0.021,-0.021 0.045,-0.039 0.07,-0.054c0.173,0.191 0.332,0.396 0.473,0.613c0.141,0.226 0.266,0.462 0.373,0.706Z" style="fill:#603e26;fill-rule:nonzero;"/><path id="Shape12" serif:id="Shape" d="M928.795,181.995l-0,3.104l-29.483,-0l0,-3.104c0.003,-0.856 0.696,-1.549 1.552,-1.551l26.379,-0c0.856,0.002 1.549,0.695 1.552,1.551Z" style="fill:#f9eab0;fill-rule:nonzero;"/></g></g></g><defs><linearGradient id="_Linear1" x1="0" y1="0" x2="1" y2="0" gradientUnits="userSpaceOnUse" gradientTransform="matrix(891.249,511.544,-511.544,891.249,0,6.59654)"><stop offset="0" style="stop-color:#0ee1ff;stop-opacity:1"/><stop offset="1" style="stop-color:#c907ff;stop-opacity:1"/></linearGradient></defs></svg>