<?xml version="1.0" encoding="UTF-8" standalone="no"?><!DOCTYPE svg PUBLIC "-//W3C//DTD SVG 1.1//EN" "http://www.w3.org/Graphics/SVG/1.1/DTD/svg11.dtd"><svg width="100%" height="100%" viewBox="0 0 1000 430" version="1.1" xmlns="http://www.w3.org/2000/svg" xmlns:xlink="http://www.w3.org/1999/xlink" xml:space="preserve" xmlns:serif="http://www.serif.com/" style="fill-rule:evenodd;clip-rule:evenodd;stroke-linecap:round;stroke-linejoin:round;stroke-miterlimit:1.5;"><path d="M0,430l340.072,-132.295l292.888,-171.816l243.036,-104.158l124.004,-15.134l-124.004,15.134l124.004,77.771l-659.928,198.203l333.448,132.295l326.48,-330.498l-367.04,26.387l-292.888,171.816l333.448,132.295l11.67,-235.948l-345.118,103.653l-38.601,132.295l38.601,-132.295l333.448,132.295l326.48,-124.817l-87.489,-117.115l87.489,-11.08l-87.489,11.08l87.489,-88.566l-314.81,94.55l-107.971,-35.464l55.741,-32.699l52.23,68.163l85.794,-78.086l229.016,-16.464l-124.004,-77.771l-48.611,90.18l-66.246,-40.956l9.845,45.011l-138.024,9.923l-292.888,171.816l95.861,132.295l68.722,-66.997l42.949,66.997l-42.949,-66.997l-68.722,66.997l-95.861,-132.295l-143.39,55.781l104.789,76.514l89.317,-62.303l45.145,62.303l-18.516,-101.609l98.693,-83.558l157.41,185.167l11.67,-235.948l-76.375,159.834l-104.16,9.117l11.455,-118.17l61.109,-86.245l107.971,35.464l85.794,-78.086l59.246,34.525l-48.262,169.726l-96.778,-126.165l125.904,23.735l101.417,-29.719l-82.281,-37.577l-48.262,169.726l140.841,14.477l-10.298,-146.626l10.298,146.626l-249.289,95.306l127.824,-48.869l198.656,48.869l-40.625,-109.286l-65.261,83.238l-92.77,-22.821l-20.711,48.869l20.711,-48.869l-127.824,48.869l-333.448,-132.295l-143.39,55.781l-63.858,76.514l119.372,-35.979l49.275,35.979l38.601,-132.295l-53.76,20.914l-34.116,75.402l74.692,-51.133l-40.576,-24.269l-286.312,111.381Z" style="fill:none;stroke:url(#_Linear1);stroke-width:4.17px;"/><defs><linearGradient id="_Linear1" x1="0" y1="0" x2="1" y2="0" gradientUnits="userSpaceOnUse" gradientTransform="matrix(891.249,511.544,-511.544,891.249,0,6.59654)"><stop offset="0" style="stop-color:#0ee1ff;stop-opacity:1"/><stop offset="1" style="stop-color:#c907ff;stop-opacity:1"/></linearGradient></defs></svg>